# xmcd
#
# Track frame offsets:
#	150
#	13062
#	27795
#	49487
#	63162
#	77450
#	91892
#	103505
#	118742
#	132567
#	144625
#	158825
#	170385
#	181760
#	194170
#	213655
#	227135
#	249657
#
# Disc length: 3511 seconds
#
# Revision: 5
# Processed by: cddbd v1.5.2PL0 Copyright (c) Steve Scherf et al.
# Submitted via: audiograbber 1.83.01
#
DISCID=fc0db512
DTITLE=Various Artist - Legends of Guitar Electric Blues Volume 2
DYEAR=1991
DGENRE=Blues
TTITLE0=Rufus "Hound Dog" Thomas Jr. - Bear Cat (The Answer to "Hound Dog")
TTITLE1=B.B. King - Just Like a Woman (Rockin' Twist)
TTITLE2=Electric Flag - Texas
TTITLE3=John Mayall and The Bluesbreakers - Another Kinda Love
TTITLE4=John Lee Hooker - Boogie Chillen
TTITLE5=Magic Sam Blues Band - Lookin' Good
TTITLE6=Houston Boines - Carry My Business On
TTITLE7=Freddie King - Going Down
TTITLE8=John Mayall With Eric Clapton - Double Crossing Time
TTITLE9=Muddy Waters - Long Distance Call
TTITLE10=Lowell Fulson - Reconsider Baby
TTITLE11=Clarence "Gatemouth" Brown - Okie Dokie Stomp
TTITLE12=Frankie Lee Sims - Lucy Mae Blues
TTITLE13=Snooks Eaglin - Playgirl
TTITLE14=James Cotton Blues Band - Fallin' Rain
TTITLE15=Howlin Wolf - Worried About My Baby
TTITLE16=Junior Wells Chicago Blues Band - Vietcong Blues
TTITLE17=Albert Collins - Frosty
EXTD=Guitar Player presents Legends of Guitar -- Electric Blues, Vol. 2
EXTT0=Rufus "Hound Dog" Thomas, Jr. (Joe Hill Louis, gtr.)
EXTT1=B.B. King (B.B. King, gtr.)
EXTT2=The Electric Flag (Michael Bloomfield, gtr.)
EXTT3=John Mayall and The Bluesbreakers (Peter Green, gtr.)
EXTT4=John Lee Hooker (John Lee Hooker, gtr.)
EXTT5=Magic Sam Blues Band (Magic Sam, gtr.)
EXTT6=Houston Boines (Little Milton Campbell, gtr.)
EXTT7=Freddie King (Freddie King, gtr.)
EXTT8=John Mayall with Eric Clapton (Eric Clapton, gtr.)
EXTT9=Muddy Waters (Muddy Waters, gtr.)
EXTT10=Lowell Fulson (Lowell Fulson, gtr.)
EXTT11=Clarence "Gatemouth" Brown with The Pluma Davis Orchestra (Clarence "Gat
EXTT11=emouth" Brown, gtr.)
EXTT12=Frankie Lee Sims (Frankie Lee Sims, gtr.)
EXTT13=Snooks Eaglin (Snooks Eaglin, gtr.)
EXTT14=James Cotton Blues Band (Luther Tucker, gtr.)
EXTT15=Howlin' Wolf (Willie Johnson, gtr.)
EXTT16=The Junior Wells Chicago Blues Band (Buddy Guy, gtr.)
EXTT17=Albert Collins (Albert Collins, gtr.)
PLAYORDER=
